# xmcd CD database file
#
# Track frame offsets:
#	150
#	18280
#	32268
#	51242
#	70250
#	86562
#	102531
#	130779
#	146256
#	162328
#	174117
#	188144
#	200781
#	218343
#	229615
#	242523
#	260523
#	276917
#	291595
#	314556
#
# Disc length: 4488 seconds
#
# Revision: 0
# Processed by: cddbd v1.5.2PL0 Copyright (c) Steve Scherf et al.
# Submitted via: CDex 1.70beta2
#
DISCID=1d118614
DTITLE=Liza Minnelli - Cabaret - All That Jazz 1
DYEAR=2010
DGENRE=Jazz
TTITLE0=Cabaret (Live)
TTITLE1=All That Jazz
TTITLE2=Losing My Mind
TTITLE3=Love Pains
TTITLE4=Use Me
TTITLE5=I Believe In Music
TTITLE6=Tropical Nights - Bali Hai'i
TTITLE7=A Beautiful Thing
TTITLE8=Oh, Babe, What Would You Say?
TTITLE9=You Are The Sunshine Of My Life
TTITLE10=I'm Your New Best Friend
TTITLE11=Where Is The Love?
TTITLE12=Don't Let Me Be Lonely
TTITLE13=The Singer
TTITLE14=Baby Don't Get Hooked On Me
TTITLE15=Jimi Jimi
TTITLE16=Don't Drop Bombs
TTITLE17=So Sorry, I Said
TTITLE18=Tonight Is Forever
TTITLE19=I Can't Say Goodnight
EXTD=YEAR: 2010
EXTT0=
EXTT1=
EXTT2=
EXTT3=
EXTT4=
EXTT5=
EXTT6=
EXTT7=
EXTT8=
EXTT9=
EXTT10=
EXTT11=
EXTT12=
EXTT13=
EXTT14=
EXTT15=
EXTT16=
EXTT17=
EXTT18=
EXTT19=
PLAYORDER=
